<svg width="30" height="23" viewBox="0 0 30 23" fill="none" xmlns="http://www.w3.org/2000/svg">
<path d="M0 0H30V23H0V0Z" fill="#000066"/>
<path d="M0 0V1.34167L14.3906 11.9792H16.2047V10.6375L1.81406 0H0ZM16.2047 0V1.34167L1.81406 11.9792H0V10.6375L14.3906 0H16.2047Z" fill="white"/>
<path d="M6.75 0V11.9792H9.45V0H6.75ZM0 3.99146V7.98771H16.2047V3.99146H0Z" fill="white"/>
<path d="M0 4.79167V7.1875H16.2047V4.79167H0ZM7.29375 0V11.9792H8.90625V0H7.28906H7.29375ZM0 11.9792L5.4 7.98771H6.60938L1.20938 11.9792H0ZM0 0L5.4 3.99146H4.19531L0 0.89125V0ZM9.59531 3.99146L14.9953 0H16.2047L10.8047 3.99146H9.59531ZM16.2047 11.9792L10.8047 7.98771H12.0094L16.2047 11.0879V11.9792Z" fill="#CC0000"/>
<path fill-rule="evenodd" clip-rule="evenodd" d="M14.0531 18.8073L12.0047 18.9894L12.2859 21.0689L10.875 19.55L9.46406 21.0689L9.74531 18.9894L7.69687 18.8073L9.46406 17.7387L8.32499 15.9898L10.2469 16.7325L10.875 14.7344L11.5078 16.7325L13.4297 15.9898L12.2906 17.7387M22.8094 20.7239L22.3125 19.9669L23.1469 20.2879L23.4187 19.4206L23.6906 20.2879L24.525 19.9669L24.0328 20.7239L24.8016 21.1887L23.9109 21.2702L24.0328 22.1758L23.4234 21.5098L22.8047 22.1758L22.9266 21.2702L22.0359 21.1935M22.8047 7.20665L22.3125 6.44957L23.1469 6.77061L23.4187 5.90332L23.6906 6.77061L24.525 6.44957L24.0328 7.20665L24.8016 7.67624L23.9109 7.7529L24.0328 8.65853L23.4234 7.99728L22.8047 8.65374L22.9266 7.7529L22.0359 7.67624M17.85 12.6979L17.3578 11.9408L18.1922 12.2619L18.4641 11.3946L18.7406 12.2619L19.575 11.9408L19.0781 12.6979L19.8469 13.1627L18.9562 13.2442L19.0828 14.1498L18.4641 13.4837L17.8547 14.1498L17.9719 13.2442L17.0812 13.1675M27.2203 11.3467L26.7187 10.5896L27.5531 10.9106L27.825 10.0433L28.1016 10.9106L28.9359 10.5896L28.4437 11.3467L29.2078 11.8114L28.3172 11.8929L28.4391 12.7937L27.8297 12.1325L27.2109 12.7937L27.3328 11.8929L26.4422 11.8114M25.4062 15.3333L24.9234 15.6448L25.0594 15.0746L24.6234 14.7008L25.1906 14.6529L25.4062 14.1162L25.6266 14.6577L26.1937 14.7008L25.7578 15.0746L25.8937 15.6448" fill="white"/>
</svg>
