<svg width="30" height="30" viewBox="0 0 30 30" fill="none" xmlns="http://www.w3.org/2000/svg">
<path d="M30 15C30 6.71573 23.2843 0 15 0C6.71573 0 0 6.71573 0 15C0 23.2843 6.71573 30 15 30C23.2843 30 30 23.2843 30 15Z" fill="#2A2D3A"/>
<path d="M15 17.8012C14.4033 17.8012 13.831 17.569 13.409 17.1557C12.9871 16.7423 12.75 16.1817 12.75 15.5971C12.75 14.7742 13.2075 14.0542 13.875 13.6795L21.1575 9.55044L17.01 16.589C16.635 17.309 15.8775 17.8012 15 17.8012ZM15 8.25C16.3575 8.25 17.625 8.61736 18.7275 9.21982L17.1525 10.1088C16.5 9.85902 15.75 9.71942 15 9.71942C13.4087 9.71942 11.8826 10.3387 10.7574 11.441C9.63214 12.5432 9 14.0383 9 15.5971C9 17.2208 9.6675 18.6902 10.755 19.7482H10.7625C11.055 20.0348 11.055 20.4976 10.7625 20.7842C10.47 21.0707 9.99 21.0707 9.6975 20.7915C8.99998 20.1102 8.44677 19.3005 8.06966 18.4091C7.69254 17.5177 7.49895 16.5621 7.5 15.5971C7.5 13.6485 8.29018 11.7798 9.6967 10.4019C11.1032 9.02407 13.0109 8.25 15 8.25ZM22.5 15.5971C22.5 17.6249 21.66 19.4617 20.3025 20.7915C20.01 21.0707 19.5375 21.0707 19.245 20.7842C19.1755 20.7162 19.1203 20.6355 19.0827 20.5466C19.045 20.4577 19.0257 20.3624 19.0257 20.2662C19.0257 20.17 19.045 20.0747 19.0827 19.9858C19.1203 19.8969 19.1755 19.8162 19.245 19.7482C19.8028 19.2041 20.245 18.5571 20.5462 17.8446C20.8475 17.1321 21.0017 16.3683 21 15.5971C21 14.8624 20.8575 14.1277 20.595 13.4664L21.5025 11.9236C22.125 13.0256 22.5 14.2599 22.5 15.5971Z" fill="white"/>
</svg>
