<svg width="60" height="60" viewBox="0 0 60 60" fill="none" xmlns="http://www.w3.org/2000/svg">
<path d="M27.403 4.67274C28.1975 4.23153 29.0913 4 30.0001 4C30.9088 4 31.8026 4.23153 32.5971 4.67274L52.697 15.8367C53.1137 16.0684 53.4609 16.4073 53.7026 16.8183C53.9444 17.2293 54.0718 17.6975 54.0718 18.1743V40.1999C54.0716 41.1538 53.8163 42.0903 53.3324 42.9124C52.8484 43.7344 52.1535 44.4121 51.3196 44.8752L32.5971 55.2796C31.8026 55.7208 30.9088 55.9523 30.0001 55.9523C29.0913 55.9523 28.1975 55.7208 27.403 55.2796L8.68053 44.8752C7.84699 44.4123 7.15233 43.7351 6.66844 42.9135C6.18455 42.092 5.92903 41.1561 5.92833 40.2026V18.1743C5.92831 17.6975 6.05576 17.2293 6.29747 16.8183C6.53918 16.4073 6.88638 16.0684 7.30309 15.8367L27.4057 4.67274H27.403Z" stroke="#0090E7" stroke-width="4" stroke-linecap="round" stroke-linejoin="round"/>
<path d="M5.92833 16.6016L30.0001 29.9748M30.0001 29.9748L54.0718 16.6016M30.0001 29.9748V56.7212" stroke="#0090E7" stroke-width="4" stroke-linejoin="round"/>
<path d="M17.9642 23.2882L42.0359 9.91504M13.9522 30.8521L21.9761 35.3241" stroke="#0090E7" stroke-width="4" stroke-linecap="round" stroke-linejoin="round"/>
</svg>
