<svg width="171" height="121" viewBox="0 0 171 121" fill="none" xmlns="http://www.w3.org/2000/svg">
<g style="mix-blend-mode:luminosity">
<path fill-rule="evenodd" clip-rule="evenodd" d="M116.671 71.5179C115.737 68.8529 115.04 66.0243 114.278 63.0364C113.765 61.0232 112.938 58.7701 111.143 58.1355C109.399 57.5181 107.519 58.7976 106.446 60.4468C105.372 62.0958 104.831 64.0954 103.913 65.8568C102.249 69.0484 99.3013 70.3864 96.8654 67.5802C93.3856 63.5717 91.8197 58.1074 89.6129 53.2184C88.011 49.6689 86.6704 45.5135 84.652 42.2421C81.5745 37.2532 77.3542 33 71.7423 33C68.1849 33.5987 65.0507 37.1007 62.9295 41.4768C60.808 45.8528 59.5707 51.0573 58.5162 56.2491C56.5984 65.6907 55.1933 75.3518 53.7905 85C53.7905 85 124.595 84.0821 124.596 84.0821C124.314 84.0861 122.578 81.5073 122.245 81.1497C119.527 78.2263 117.895 75.0126 116.671 71.5179Z" fill="#DCE6EF"/>
<path fill-rule="evenodd" clip-rule="evenodd" d="M102.801 75.7526C102.662 78.8086 99.6668 84.1508 96.9144 83.9967C94.1621 83.8427 92.6944 78.2507 92.8331 75.1947C92.9721 72.1389 95.9032 56.8468 98.6558 57.0012C101.408 57.1552 102.94 72.6966 102.801 75.7526Z" fill="#6AA5FE"/>
<path d="M99.1785 59L98.2708 84" stroke="#1A55B5" stroke-width="0.867" stroke-linecap="round" stroke-linejoin="round"/>
<path fill-rule="evenodd" clip-rule="evenodd" d="M97.073 74.6729C96.4452 76.2764 95.9675 77.9594 95.6786 79.712C95.532 80.6006 95.4397 81.5636 95.7857 82.3746C96.1635 83.2599 97.0018 83.7761 97.8406 83.9362C99.8895 84.3276 101.939 82.8682 103.14 80.8983C104.341 78.9286 104.861 76.521 105.338 74.1715C105.714 72.3211 106.083 70.4436 106.791 68.7195C107.095 67.9803 108.873 65.127 108.032 64.3867C106.882 63.3356 103.551 64.4792 101.417 67.1886C99.659 69.4201 98.1466 71.9306 97.073 74.6729Z" fill="#FFC957"/>
<path d="M97.3629 84C97.3629 84 100.022 73.832 106.44 68" stroke="#6AA5FE" stroke-width="0.867" stroke-linecap="round" stroke-linejoin="round"/>
<path fill-rule="evenodd" clip-rule="evenodd" d="M111.773 72.4193C111.592 72.8324 111.252 73.1141 110.944 73.3351C110.565 73.6074 110.16 73.847 109.769 74.0788C109.267 74.3761 108.748 74.6834 108.269 75.0667C107.919 75.3465 107.609 75.6619 107.348 76C107.76 74.8097 108.241 73.7704 108.807 72.8416C109.553 71.619 110.318 71 111.083 71C111.101 71 111.119 71.0003 111.136 71.0011C111.373 71.0097 111.557 71.0841 111.684 71.2226C111.943 71.5072 111.933 72.0546 111.773 72.4193Z" fill="#1A55B5"/>
<path fill-rule="evenodd" clip-rule="evenodd" d="M112.315 80.0883C111.921 80.3917 111.398 80.4686 110.938 80.5036C110.371 80.5471 109.789 80.5425 109.227 80.5391C108.505 80.5336 107.759 80.5281 107.026 80.6222C106.492 80.6911 105.988 80.8192 105.533 81C106.539 80.0599 107.561 79.3122 108.636 78.7259C110.05 77.9546 111.223 77.7971 112.124 78.2574C112.145 78.2681 112.166 78.2792 112.186 78.2905C112.461 78.4413 112.646 78.6263 112.734 78.8409C112.916 79.2806 112.664 79.8208 112.315 80.0883Z" fill="#1A55B5"/>
<path fill-rule="evenodd" clip-rule="evenodd" d="M110.356 82.9924C110.095 82.9437 109.86 82.7162 109.666 82.4997C109.425 82.2333 109.196 81.9351 108.974 81.6478C108.69 81.2778 108.395 80.8954 108.072 80.5704C107.836 80.333 107.592 80.1409 107.348 80C108.074 80.0413 108.739 80.1862 109.369 80.4397C110.197 80.7727 110.718 81.2904 110.916 81.9789C110.92 81.995 110.925 82.0107 110.929 82.027C110.986 82.2422 110.994 82.4288 110.955 82.5811C110.875 82.8935 110.588 83.0356 110.356 82.9924Z" fill="#1A55B5"/>
<path d="M103.717 84C103.717 84 103.745 77.51 110.979 72" stroke="#2A294F" stroke-width="0.78" stroke-linecap="round" stroke-linejoin="round"/>
<path d="M103.717 84C103.717 84 105.919 79 111.887 79" stroke="#2A294F" stroke-width="0.78" stroke-linecap="round" stroke-linejoin="round"/>
<path d="M107.348 81.0007C107.348 81.0007 108.524 80.9033 110.979 83" stroke="#2A294F" stroke-width="0.78" stroke-linecap="round" stroke-linejoin="round"/>
<path fill-rule="evenodd" clip-rule="evenodd" d="M41.9896 84C40.2954 76.9563 38.5916 69.9092 36.5998 63.0877C35.4768 59.241 34.2373 55.4091 32.5161 52.3319C30.7949 49.2543 28.514 46.984 26.2248 47C22.6967 47.7507 20.421 51.5823 18.9283 55.8256C17.9498 58.608 17.4753 61.9792 16.783 64.9199C15.8291 68.9703 15.329 73.3766 13.4969 76.9212C12.2145 79.402 10.2427 78.769 8.91383 76.5401C8.18047 75.3098 7.66316 73.8465 6.84202 72.7233C6.02114 71.6005 4.72632 70.869 3.68392 71.5768C2.61243 72.3043 2.29197 74.1453 2.14784 75.7603C1.93386 78.1571 1.74636 80.4229 1.39578 82.5949C1.31943 83.0676 1.23425 83.5355 1.1405 84H41.9896Z" fill="#DCE6EF"/>
<path fill-rule="evenodd" clip-rule="evenodd" d="M26.1505 74.5481C25.1636 73.2433 23.9145 72.1173 23.5205 70.4708C23.2327 69.2676 23.4598 67.9944 23.5724 66.7534C23.6845 65.5125 23.645 64.1405 22.945 63.1854C22.368 62.3988 21.4564 62.0569 20.5797 61.841C19.703 61.6247 18.7882 61.4882 18.0103 60.9769C16.7469 60.1467 16.9987 58.734 16.3203 57.4955C15.5595 56.1055 13.7889 54.3322 12.2712 55.2553C10.664 56.2332 10.9187 59.2014 11.9877 60.512C12.6971 61.3813 13.6051 62.2154 13.7092 63.3994C13.8664 65.1825 12.0843 66.7876 12.5746 68.4893C12.9366 69.7461 14.3186 70.1782 15.0009 71.246C15.6762 72.3021 15.5404 73.7821 15.1426 75.0097C14.7453 76.2371 14.1191 77.3723 13.8717 78.6504C13.3656 81.2664 15.1562 83.0741 17.1963 83.6573C19.0708 84.1933 23.114 83.9404 23.114 83.9404C24.5568 83.3617 26.1565 81.909 26.9497 80.3213C27.549 79.1217 27.632 77.601 27.1677 76.3253C26.9284 75.6678 26.5621 75.0924 26.1505 74.5481Z" fill="#FFC957"/>
<path d="M13.8491 58C13.8491 58 21.2175 70.3203 22.0189 84" stroke="#6AA5FE" stroke-linecap="round" stroke-linejoin="round"/>
<path fill-rule="evenodd" clip-rule="evenodd" d="M7.65773 74.1783C7.75899 74.0673 7.90638 74.0076 8.09552 74.0009C8.10982 74.0003 8.12389 74 8.13796 74C8.7499 74 9.36229 74.4952 9.95901 75.4728C10.412 76.2162 10.7965 77.0479 11.1259 78C10.9176 77.7292 10.6694 77.4769 10.3896 77.2532C10.0063 76.9466 9.59088 76.7007 9.1893 76.4626C8.87653 76.2772 8.55291 76.0858 8.24891 75.8678C8.00256 75.691 7.73108 75.4658 7.58599 75.1354C7.45821 74.8435 7.4499 74.4056 7.65773 74.1783Z" fill="#6AA5FE"/>
<path fill-rule="evenodd" clip-rule="evenodd" d="M6.6249 80.5604C6.68011 80.4177 6.79547 80.2943 6.96721 80.1935C6.98013 80.1859 6.99306 80.1786 7.00598 80.1716C7.5696 79.8649 8.30286 79.9695 9.18671 80.4839C9.85841 80.8746 10.497 81.3731 11.1259 82C10.8414 81.8795 10.5266 81.7941 10.1927 81.7482C9.73459 81.6855 9.268 81.6893 8.81691 81.6925C8.46544 81.6952 8.10198 81.6982 7.74769 81.6693C7.46036 81.6458 7.13332 81.5944 6.88663 81.3923C6.66884 81.2137 6.51166 80.8538 6.6249 80.5604Z" fill="#6AA5FE"/>
<path fill-rule="evenodd" clip-rule="evenodd" d="M8.4207 82.7206C8.39123 82.6192 8.39775 82.495 8.4405 82.3514C8.44365 82.3406 8.4468 82.33 8.4504 82.3191C8.59889 81.8602 8.98901 81.5149 9.61063 81.2928C10.0831 81.1242 10.5817 81.0272 11.1259 81C10.9434 81.0941 10.7601 81.2218 10.5832 81.3801C10.3407 81.597 10.12 81.852 9.90649 82.0983C9.74 82.2903 9.56811 82.4887 9.38813 82.6665C9.24189 82.8106 9.06618 82.9626 8.86999 82.9949C8.69653 83.0238 8.48122 82.9291 8.4207 82.7206Z" fill="#6AA5FE"/>
<path d="M12.9414 84C12.9414 84 12.9168 79.1322 6.58713 75" stroke="#2A294F" stroke-width="0.78" stroke-linecap="round" stroke-linejoin="round"/>
<path d="M12.9414 84C12.9414 84 11.2289 80 6.58713 80" stroke="#2A294F" stroke-width="0.78" stroke-linecap="round" stroke-linejoin="round"/>
<path d="M11.1259 82.0003C11.1259 82.0003 10.2443 81.9518 8.40262 83" stroke="#2A294F" stroke-width="0.78" stroke-linecap="round" stroke-linejoin="round"/>
<path fill-rule="evenodd" clip-rule="evenodd" d="M72.2249 84H23.5551C22.2054 84 21.1113 82.8115 21.1113 81.3451V9.65491C21.1113 8.1888 22.2054 7 23.5551 7H72.2249C73.5749 7 74.669 8.1888 74.669 9.65491V81.3451C74.669 82.8115 73.5749 84 72.2249 84Z" fill="#6AA5FE"/>
<path fill-rule="evenodd" clip-rule="evenodd" d="M21.1113 25V81.3105C21.1113 82.796 22.2054 84 23.5551 84H72.2247C73.5746 84 74.669 82.796 74.669 81.3105V70.197L21.1113 25Z" fill="#527EE9"/>
<path fill-rule="evenodd" clip-rule="evenodd" d="M70.0609 81H25.7193C25.1797 81 24.7422 80.5065 24.7422 79.898V11.1023C24.7422 10.4935 25.1797 10 25.7193 10H70.0609C70.6005 10 71.0379 10.4935 71.0379 11.1023V79.898C71.0379 80.5065 70.6005 81 70.0609 81Z" fill="#F3F4F6"/>
<mask id="mask0_1_1187" style="mask-type:alpha" maskUnits="userSpaceOnUse" x="37" y="0" width="21" height="12">
<path d="M37.5343 0.206543H57.4177V11.7775H37.5343V0.206543Z" fill="white"/>
</mask>
<g mask="url(#mask0_1_1187)">
<path fill-rule="evenodd" clip-rule="evenodd" d="M51.4948 4.92385C51.4982 4.85014 51.5048 4.77699 51.5048 4.70271C51.5048 2.21928 49.7008 0.206421 47.4759 0.206421C45.2507 0.206421 43.4469 2.21928 43.4469 4.70271C43.4469 4.77699 43.4538 4.85014 43.4569 4.92385H37.5343V11.7776H57.4177V4.92385H51.4948Z" fill="#1A55B5"/>
</g>
<path fill-rule="evenodd" clip-rule="evenodd" d="M37.4509 5V12H57.4216L37.4509 5Z" fill="#2C6BC6"/>
<path fill-rule="evenodd" clip-rule="evenodd" d="M50.1596 4.50014C50.1596 5.88078 49.1436 7 47.89 7C46.6367 7 45.6208 5.88078 45.6208 4.50014C45.6208 3.11922 46.6367 2 47.89 2C49.1436 2 50.1596 3.11922 50.1596 4.50014Z" fill="#527EE9"/>
<path fill-rule="evenodd" clip-rule="evenodd" d="M46.2436 3C45.4131 3.91511 45.4131 5.39875 46.2436 6.31387C47.0744 7.22871 48.4213 7.22871 49.2518 6.31387L46.2436 3Z" fill="#6AA5FE"/>
<path fill-rule="evenodd" clip-rule="evenodd" d="M37.4509 12.2341H57.4216V11.766H37.4509V12.2341Z" fill="#CDE1F9"/>
<path fill-rule="evenodd" clip-rule="evenodd" d="M29.281 30H37.4508V21H29.281V30Z" stroke="#1A55B5"/>
<path d="M32.0042 25.9962L34.3985 28L39.2663 23" stroke="#F3F4F6" stroke-width="4"/>
<path d="M32.0042 24.9962L34.3985 27L39.2663 22" stroke="#FF746F" stroke-width="4"/>
<path fill-rule="evenodd" clip-rule="evenodd" d="M65.3085 24H41.3645C41.2084 24 41.0819 23.776 41.0819 23.5C41.0819 23.224 41.2084 23 41.3645 23H65.3085C65.4646 23 65.5914 23.224 65.5914 23.5C65.5914 23.776 65.4646 24 65.3085 24Z" fill="#6AA5FE"/>
<path fill-rule="evenodd" clip-rule="evenodd" d="M65.3085 25H41.3645C41.2084 25 41.0819 24.776 41.0819 24.5C41.0819 24.224 41.2084 24 41.3645 24H65.3085C65.4646 24 65.5914 24.224 65.5914 24.5C65.5914 24.776 65.4646 25 65.3085 25Z" fill="#6AA5FE"/>
<path fill-rule="evenodd" clip-rule="evenodd" d="M65.3085 26H41.3645C41.2084 26 41.0819 25.776 41.0819 25.5C41.0819 25.224 41.2084 25 41.3645 25H65.3085C65.4646 25 65.5914 25.224 65.5914 25.5C65.5914 25.776 65.4646 26 65.3085 26Z" fill="#6AA5FE"/>
<path fill-rule="evenodd" clip-rule="evenodd" d="M65.3085 28H41.3645C41.2084 28 41.0819 27.7765 41.0819 27.5C41.0819 27.224 41.2084 27 41.3645 27H65.3085C65.4646 27 65.5914 27.224 65.5914 27.5C65.5914 27.7765 65.4646 28 65.3085 28Z" fill="#6AA5FE"/>
<path fill-rule="evenodd" clip-rule="evenodd" d="M29.281 44H37.4508V35H29.281V44Z" stroke="#1A55B5"/>
<path d="M32.0042 38.9959L34.3985 41L39.2663 36" stroke="#F3F4F6" stroke-width="4"/>
<path d="M32.0042 38.9959L34.3985 41L39.2663 36" stroke="#FF746F" stroke-width="4"/>
<path fill-rule="evenodd" clip-rule="evenodd" d="M65.3085 37H41.3645C41.2084 37 41.0819 36.776 41.0819 36.5C41.0819 36.224 41.2084 36 41.3645 36H65.3085C65.4646 36 65.5914 36.224 65.5914 36.5C65.5914 36.776 65.4646 37 65.3085 37Z" fill="#6AA5FE"/>
<path fill-rule="evenodd" clip-rule="evenodd" d="M65.3085 38H41.3645C41.2084 38 41.0819 37.776 41.0819 37.5C41.0819 37.224 41.2084 37 41.3645 37H65.3085C65.4646 37 65.5914 37.224 65.5914 37.5C65.5914 37.776 65.4646 38 65.3085 38Z" fill="#6AA5FE"/>
<path fill-rule="evenodd" clip-rule="evenodd" d="M65.3085 40H41.3645C41.2084 40 41.0819 39.776 41.0819 39.5C41.0819 39.224 41.2084 39 41.3645 39H65.3085C65.4646 39 65.5914 39.224 65.5914 39.5C65.5914 39.776 65.4646 40 65.3085 40Z" fill="#6AA5FE"/>
<path fill-rule="evenodd" clip-rule="evenodd" d="M65.3085 41H41.3645C41.2084 41 41.0819 40.776 41.0819 40.5C41.0819 40.224 41.2084 40 41.3645 40H65.3085C65.4646 40 65.5914 40.224 65.5914 40.5C65.5914 40.776 65.4646 41 65.3085 41Z" fill="#6AA5FE"/>
<path fill-rule="evenodd" clip-rule="evenodd" d="M29.281 57H37.4508V48H29.281V57Z" stroke="#1A55B5"/>
<path d="M32.0042 51.9962L34.3985 54L39.2663 49" stroke="#F3F4F6" stroke-width="4"/>
<path d="M32.0042 51.9962L34.3985 54L39.2663 49" stroke="#FF746F" stroke-width="4"/>
<path fill-rule="evenodd" clip-rule="evenodd" d="M65.3085 50H41.3645C41.2084 50 41.0819 49.7764 41.0819 49.5002C41.0819 49.2241 41.2084 49 41.3645 49H65.3085C65.4646 49 65.5914 49.2241 65.5914 49.5002C65.5914 49.7764 65.4646 50 65.3085 50Z" fill="#6AA5FE"/>
<path fill-rule="evenodd" clip-rule="evenodd" d="M65.3085 52H41.3645C41.2084 52 41.0819 51.776 41.0819 51.5C41.0819 51.224 41.2084 51 41.3645 51H65.3085C65.4646 51 65.5914 51.224 65.5914 51.5C65.5914 51.776 65.4646 52 65.3085 52Z" fill="#6AA5FE"/>
<path fill-rule="evenodd" clip-rule="evenodd" d="M65.3085 53H41.3645C41.2084 53 41.0819 52.776 41.0819 52.5C41.0819 52.224 41.2084 52 41.3645 52H65.3085C65.4646 52 65.5914 52.224 65.5914 52.5C65.5914 52.776 65.4646 53 65.3085 53Z" fill="#6AA5FE"/>
<path fill-rule="evenodd" clip-rule="evenodd" d="M65.3085 54H41.3645C41.2084 54 41.0819 53.7764 41.0819 53.4998C41.0819 53.2236 41.2084 53 41.3645 53H65.3085C65.4646 53 65.5914 53.2236 65.5914 53.4998C65.5914 53.7764 65.4646 54 65.3085 54Z" fill="#6AA5FE"/>
<path fill-rule="evenodd" clip-rule="evenodd" d="M29.281 70H37.4508V61H29.281V70Z" stroke="#1A55B5"/>
<path d="M32.0042 65.9959L34.3985 68L39.2663 63" stroke="#F3F4F6" stroke-width="4"/>
<path d="M32.0042 64.9959L34.3985 67L39.2663 62" stroke="#FF746F" stroke-width="4"/>
<path fill-rule="evenodd" clip-rule="evenodd" d="M65.3085 64H41.3645C41.2084 64 41.0819 63.776 41.0819 63.5C41.0819 63.224 41.2084 63 41.3645 63H65.3085C65.4646 63 65.5914 63.224 65.5914 63.5C65.5914 63.776 65.4646 64 65.3085 64Z" fill="#6AA5FE"/>
<path fill-rule="evenodd" clip-rule="evenodd" d="M65.3085 65H41.3645C41.2084 65 41.0819 64.7764 41.0819 64.5002C41.0819 64.2236 41.2084 64 41.3645 64H65.3085C65.4646 64 65.5914 64.2236 65.5914 64.5002C65.5914 64.7764 65.4646 65 65.3085 65Z" fill="#6AA5FE"/>
<path fill-rule="evenodd" clip-rule="evenodd" d="M65.3085 66H41.3645C41.2084 66 41.0819 65.776 41.0819 65.5C41.0819 65.224 41.2084 65 41.3645 65H65.3085C65.4646 65 65.5914 65.224 65.5914 65.5C65.5914 65.776 65.4646 66 65.3085 66Z" fill="#6AA5FE"/>
<path fill-rule="evenodd" clip-rule="evenodd" d="M65.3085 69H41.3645C41.2084 69 41.0819 68.776 41.0819 68.5C41.0819 68.224 41.2084 68 41.3645 68H65.3085C65.4646 68 65.5914 68.224 65.5914 68.5C65.5914 68.776 65.4646 69 65.3085 69Z" fill="#6AA5FE"/>
<path fill-rule="evenodd" clip-rule="evenodd" d="M77.1176 27.9592C76.9695 28.089 75.6237 29 75.6237 29L74.669 27.5982L74.9531 26L77.0082 26.147C77.0082 26.147 77.3677 27.3398 77.3679 27.3401C77.4533 27.6233 77.301 27.7986 77.1176 27.9592Z" fill="#FE9280"/>
<path fill-rule="evenodd" clip-rule="evenodd" d="M76.2244 26.1497L76.4845 27.3855L75.6891 27.9027C75.5378 28.0088 75.3684 28.0288 75.2091 27.9595C74.8581 27.8071 74.6303 27.2613 74.6745 26.6788L74.7257 26L76.2244 26.1497Z" fill="#E86767"/>
<path fill-rule="evenodd" clip-rule="evenodd" d="M76.4845 27.9025L77.0508 28L77.3606 27.3721C77.421 27.2588 77.3923 27.109 77.2965 27.0374C77.2005 26.966 77.0738 26.9999 77.0134 27.1132L76.4845 27.9025Z" fill="#FF746F"/>
<path fill-rule="evenodd" clip-rule="evenodd" d="M74.669 31L73.3318 31.5536L72.8535 37.8953L74.419 38L74.669 31Z" fill="white"/>
<path fill-rule="evenodd" clip-rule="evenodd" d="M98.6767 35.9739L95.5474 35.5223L96.2636 29L99.3927 29.4516C100.964 29.6785 102.077 31.3222 101.879 33.1235C101.681 34.9245 100.247 36.2006 98.6767 35.9739Z" fill="#FE9280"/>
<path fill-rule="evenodd" clip-rule="evenodd" d="M98.8399 34.7508L95.7105 34.3776L95.5474 35.6051L98.6767 35.9785C100.248 36.1658 101.682 35.1111 101.879 33.6231C101.907 33.4115 101.908 33.2031 101.886 33C101.434 34.1576 100.188 34.9114 98.8399 34.7508Z" fill="#777470"/>
<path fill-rule="evenodd" clip-rule="evenodd" d="M94.8381 36L61.9604 31.2758L62.6698 25L95.5475 29.7242L94.8381 36Z" fill="#FFC957"/>
<path fill-rule="evenodd" clip-rule="evenodd" d="M55.606 27.5283L62.0836 32L62.8681 25L55.606 27.5283Z" fill="#FFF4DD"/>
<path fill-rule="evenodd" clip-rule="evenodd" d="M56.5137 27L62.6853 31L62.868 29.4685L56.5137 27Z" fill="#777470"/>
<path fill-rule="evenodd" clip-rule="evenodd" d="M58.3293 26L56.5137 26.7225L58.1334 28L58.3293 26Z" fill="#2A294F"/>
<path fill-rule="evenodd" clip-rule="evenodd" d="M97.5201 36L94.6396 35.5984L95.3902 29L98.2707 29.401L97.5201 36Z" fill="#D3EAF5"/>
<path fill-rule="evenodd" clip-rule="evenodd" d="M98.3562 36L97.3629 35.8687L98.1848 29L99.1784 29.1313L98.3562 36Z" fill="#D3EAF5"/>
<path fill-rule="evenodd" clip-rule="evenodd" d="M96.2787 36L61.0526 30.6506L61.2289 29L96.4552 34.3494L96.2787 36Z" fill="#777470"/>
<path fill-rule="evenodd" clip-rule="evenodd" d="M97.1865 32L61.9604 26.6504L62.1367 25L97.363 30.3493L97.1865 32Z" fill="#777470"/>
<path fill-rule="evenodd" clip-rule="evenodd" d="M98.0874 37L97.3629 36.8823L97.5462 35L98.2706 35.118L98.0874 37Z" fill="#777470"/>
<path fill-rule="evenodd" clip-rule="evenodd" d="M83.7465 48L84.2351 47.0949L85.8719 47.0027C86.173 46.9792 86.4396 47.1111 86.4674 47.2968C86.4953 47.4829 86.2738 47.6527 85.9727 47.676L83.7465 48Z" fill="#E86767"/>
<path fill-rule="evenodd" clip-rule="evenodd" d="M83.0268 47.7512L83.8998 49L85.562 48.676L83.7098 46L83.3511 46.2283C82.8261 46.5623 82.6805 47.2443 83.0268 47.7512Z" fill="#FF746F"/>
<path fill-rule="evenodd" clip-rule="evenodd" d="M85.9027 25.565C84.2508 22.9031 80.0884 23.613 80.1969 27.878C80.1972 27.8905 80.1982 27.9039 80.1985 27.9164C80.1885 28.4572 80.2043 29.0077 80.0768 29.5166C80.0119 29.7733 79.8997 30.013 79.7301 30.1852C79.5619 30.3601 79.3435 30.4626 79.1138 30.517C78.8817 30.5736 78.6312 30.5881 78.3734 30.6448C78.1135 30.7034 77.8604 30.8086 77.6309 30.9593C77.1712 31.2553 76.7959 31.7401 76.6235 32.3141C76.2942 33.4533 76.5575 34.7706 77.3339 35.6275C77.5289 35.8378 77.7552 36.0165 78.0036 36.1446C78.2517 36.2779 78.5332 36.3278 78.7616 36.3787C79.2421 36.4946 79.7278 36.6477 80.224 36.7554L80.2377 36.7081C79.7809 36.4754 79.3304 36.2308 78.8465 36.0458C78.5939 35.9479 78.3774 35.8913 78.1826 35.7577C77.9868 35.6304 77.8062 35.4739 77.6548 35.2848C77.3494 34.9098 77.1271 34.447 76.9999 33.9532C76.8732 33.4603 76.8474 32.9264 76.9731 32.4358C77.0966 31.9481 77.3946 31.5231 77.7884 31.2408C77.9839 31.0988 78.2026 30.9957 78.431 30.9323C78.662 30.8684 78.9138 30.842 79.1687 30.7673C79.4247 30.6944 79.6765 30.5515 79.8631 30.3322C80.0516 30.1138 80.1593 29.8323 80.2129 29.554C80.2503 29.3554 80.2668 29.157 80.2726 28.9597C80.3176 29.7545 80.2555 30.5617 79.5154 30.8673C79.0888 31.0433 78.6733 31.0436 78.277 31.3358C77.8885 31.6225 77.5802 32.0466 77.4296 32.5369C76.9657 34.0453 78.1747 35.9967 79.5961 36.1634C80.184 36.2326 80.7725 36.39 81.3542 36.5053C81.5168 36.5373 83.8048 37.0558 83.8232 36.9951L86.4698 28.337L85.9027 25.565Z" fill="#1A55B5"/>
<path fill-rule="evenodd" clip-rule="evenodd" d="M84.5576 47L90.1008 42.4946L89.3268 40L83.7465 45.5859L84.5576 47Z" fill="white"/>
<path fill-rule="evenodd" clip-rule="evenodd" d="M89.2805 41.4276C89.4948 41.9267 90.0358 42.1398 90.4888 41.9037C90.9421 41.6676 91.1356 41.0717 90.9213 40.5726C90.7072 40.0733 90.1659 39.8602 89.7127 40.0963C89.2597 40.3324 89.0662 40.9283 89.2805 41.4276Z" fill="white"/>
<path fill-rule="evenodd" clip-rule="evenodd" d="M89.4019 43L91.0086 41.2804L86.3684 35.6359C85.8415 34.8672 84.8071 34.7815 84.1778 35.455C83.5488 36.1279 83.6169 37.9995 84.3224 38.5777L89.4019 43Z" fill="white"/>
<path fill-rule="evenodd" clip-rule="evenodd" d="M81.931 34.8446L83.473 35L83.7465 31.1554L82.2045 31L81.931 34.8446Z" fill="#FF746F"/>
<path fill-rule="evenodd" clip-rule="evenodd" d="M73.7008 37.0023C73.2005 37.0391 72.8221 37.5158 72.8556 38.0668C72.8893 38.618 73.3219 39.0346 73.822 38.9977C74.3223 38.9611 74.7004 38.4842 74.667 37.9332C74.6335 37.3823 74.2008 36.9654 73.7008 37.0023Z" fill="white"/>
<path fill-rule="evenodd" clip-rule="evenodd" d="M72.8535 37.1817L73.9783 39L80.8543 37.1807C81.697 36.9853 82.1543 35.5351 81.8223 34.8041C81.4906 34.0728 80.5234 33.7787 79.7748 34.1813L72.8535 37.1817Z" fill="white"/>
<path fill-rule="evenodd" clip-rule="evenodd" d="M82.9701 46L86.4331 36.8302C86.608 36.0796 86.1389 35.3323 85.4283 35.2283L80.4574 34.012C79.7471 33.908 79.1107 34.494 79.0942 35.2673L77.3922 45.2666L82.9701 46Z" fill="white"/>
<path fill-rule="evenodd" clip-rule="evenodd" d="M81.8132 26C81.3481 26.6601 80.5113 26.9383 80.3144 27.5439L80.2724 27.8238C80.2724 27.8363 80.272 27.849 80.2727 27.8623L80.2681 27.8535L80.1403 28.7014C79.9788 29.7744 80.6231 30.7913 81.5794 30.9722C82.5354 31.1534 83.4414 30.4306 83.603 29.3576L83.7465 28.4031C83.6477 27.4315 82.0661 27.3566 81.8132 26Z" fill="#FF746F"/>
<path fill-rule="evenodd" clip-rule="evenodd" d="M83.7529 29.4167C83.7111 29.6893 83.8778 29.9474 84.1247 29.993C84.3718 30.0388 84.606 29.8556 84.6479 29.5833C84.6895 29.311 84.523 29.0532 84.2756 29.007C84.0288 28.9612 83.7946 29.1444 83.7529 29.4167Z" fill="#FF746F"/>
<path fill-rule="evenodd" clip-rule="evenodd" d="M79.443 45.3136L81.9311 51.7815L79.5538 82H77.7279L75.5768 51.5936L76.9972 45L79.443 45.3136Z" fill="#1A55B5"/>
<path fill-rule="evenodd" clip-rule="evenodd" d="M80.1155 45V51.5232L90.6272 82H91.9164L86.2923 50.3728L83.0483 45.4042L80.1155 45Z" fill="#527EE9"/>
<path fill-rule="evenodd" clip-rule="evenodd" d="M79.0003 83H78.3V82H79.2077L79.0003 83Z" fill="#FF746F"/>
<path fill-rule="evenodd" clip-rule="evenodd" d="M78.2344 83L78.5866 83.1614L78.914 83L79.2078 84H76.4845L77.5082 83.4999L78.2344 83Z" fill="#2A294F"/>
<path fill-rule="evenodd" clip-rule="evenodd" d="M91.4359 83H91.9164L91.6317 82H91.0086L91.4359 83Z" fill="#FF746F"/>
<path fill-rule="evenodd" clip-rule="evenodd" d="M91.9822 83L91.6298 83.1614L91.3024 83L91.0086 84H93.7319L92.7082 83.4999L91.9822 83Z" fill="#2A294F"/>
<path fill-rule="evenodd" clip-rule="evenodd" d="M81.0233 38.5C81.0233 39.3287 80.4135 40 79.6616 40C78.9097 40 78.3 39.3287 78.3 38.5C78.3 37.6716 78.9097 37 79.6616 37C80.4135 37 81.0233 37.6716 81.0233 38.5Z" fill="white"/>
<path fill-rule="evenodd" clip-rule="evenodd" d="M81.0233 34L81.1969 37L83.7465 34.3583L81.0233 34Z" fill="#FF746F"/>
<path fill-rule="evenodd" clip-rule="evenodd" d="M87.3176 26.4801C87.0507 26.154 86.7255 25.8906 86.3647 25.7084C85.7789 25.412 85.1168 25.4445 84.5796 25L84.999 29.0627C85.7699 28.8517 85.724 30.4455 84.8332 30.0049C84.8332 30.0049 83.0674 30.7299 82.3976 32.3168C81.938 33.3827 81.8615 34.6251 81.9816 35.3366C82.1971 36.6104 83.3236 37.2704 84.6015 36.8955C85.3647 36.6717 85.9857 36.118 86.4259 35.4792C87.971 33.2379 89.0002 29.5571 87.6787 27.028C87.5758 26.8306 87.4542 26.6473 87.3176 26.4801Z" fill="#1A55B5"/>
<path fill-rule="evenodd" clip-rule="evenodd" d="M74.7094 26L74.6785 26.1755C74.6136 26.5417 74.8876 26.8862 75.2909 26.9454L75.6058 26.9914C76.0091 27.0503 76.3885 26.8012 76.4534 26.435L76.4845 26.2595L74.7094 26Z" fill="#FF746F"/>
<path fill-rule="evenodd" clip-rule="evenodd" d="M81.8663 29.2494C81.7775 29.1458 81.188 28.9421 81.1168 29.0157C81.0404 29.0944 81.0089 29.2811 81.0294 29.4389C81.0497 29.5967 81.1127 29.7258 81.185 29.8176C81.3495 30.0251 81.5738 30.0586 81.7538 29.9025C81.8225 29.8432 81.8871 29.7527 81.9168 29.6236C81.9462 29.4948 81.9302 29.3243 81.8663 29.2494Z" fill="white"/>
<path d="M1.1405 84H125.503" stroke="#2A294F" stroke-width="0.78" stroke-linecap="round" stroke-linejoin="round"/>
</g>
</svg>
