<svg width="126" height="40" viewBox="0 0 126 40" fill="none" xmlns="http://www.w3.org/2000/svg">
<path opacity="0.245629" d="M36 1V39.5" stroke="#979797" stroke-linecap="square"/>
<path opacity="0.245629" d="M90 1V39.5" stroke="#979797" stroke-linecap="square"/>
<g clip-path="url(#clip0_205_198)">
<path d="M70 17.956V24.0625C70 24.6851 69.7777 25.2841 69.3786 25.7367C68.9795 26.1892 68.434 26.461 67.8538 26.4963L67.725 26.5H58.275C57.6939 26.5 57.1348 26.2618 56.7124 25.8342C56.2901 25.4067 56.0364 24.8221 56.0035 24.2005L56 24.0625V17.956L62.7564 21.748C62.8316 21.7902 62.9151 21.8122 63 21.8122C63.0849 21.8122 63.1684 21.7902 63.2436 21.748L70 17.956ZM58.275 14.5H67.725C68.2889 14.4999 68.8327 14.7242 69.251 15.1295C69.6693 15.5347 69.9322 16.0919 69.9888 16.693L63 20.6155L56.0112 16.693C56.0655 16.1157 56.3101 15.5781 56.7012 15.1768C57.0923 14.7756 57.6042 14.5369 58.1448 14.5038L58.275 14.5H67.725H58.275Z" fill="white"/>
<path d="M68.5 19C70.7091 19 72.5 17.2091 72.5 15C72.5 12.7909 70.7091 11 68.5 11C66.2909 11 64.5 12.7909 64.5 15C64.5 17.2091 66.2909 19 68.5 19Z" fill="#44CE43" stroke="#191C24"/>
</g>
<g clip-path="url(#clip1_205_198)">
<path d="M123 25.2434L122.863 25.1098C122.475 24.7268 122.135 24.2877 121.852 23.8042C121.544 23.137 121.359 22.4083 121.309 21.6609V19.4597C121.311 18.2859 120.927 17.1514 120.227 16.2693C119.527 15.3873 118.56 14.8184 117.507 14.6697V14.0949C117.507 13.9371 117.451 13.7858 117.35 13.6742C117.249 13.5627 117.112 13.5 116.97 13.5C116.827 13.5 116.69 13.5627 116.59 13.6742C116.489 13.7858 116.432 13.9371 116.432 14.0949V14.6786C115.389 14.8381 114.434 15.4103 113.743 16.2894C113.053 17.1685 112.673 18.2948 112.675 19.4597V21.6609C112.625 22.4083 112.44 23.137 112.132 23.8042C111.854 24.2865 111.52 24.7256 111.137 25.1098L111 25.2434V26.5H123V25.2434Z" fill="white"/>
<path d="M116 26.5C116.033 26.7772 116.153 27.0311 116.337 27.2149C116.521 27.3987 116.756 27.5 117 27.5C117.244 27.5 117.479 27.3987 117.663 27.2149C117.847 27.0311 117.967 26.7772 118 26.5H116Z" fill="white"/>
<path d="M122.5 19C124.709 19 126.5 17.2091 126.5 15C126.5 12.7909 124.709 11 122.5 11C120.291 11 118.5 12.7909 118.5 15C118.5 17.2091 120.291 19 122.5 19Z" fill="#DC3545" stroke="#191C24"/>
</g>
<path d="M2 21.2778H8.22222V13.5H2V21.2778ZM2 27.5H8.22222V22.8333H2V27.5ZM9.77778 27.5H16V19.7222H9.77778V27.5ZM9.77778 13.5V18.1667H16V13.5H9.77778Z" fill="white"/>
<defs>
<clipPath id="clip0_205_198">
<rect width="18" height="18" fill="white" transform="translate(54 11.5)"/>
</clipPath>
<clipPath id="clip1_205_198">
<rect width="18" height="18" fill="white" transform="translate(108 11.5)"/>
</clipPath>
</defs>
</svg>
